<?xml version="1.0" encoding="UTF-8" standalone="no"?>
<svg overflow="hidden" version="1.1" id="svg217" sodipodi:docname="logo.svg" inkscape:version="1.2.2 (b0a84865, 2022-12-01)" height="790" width="810"
   xmlns:inkscape="http://www.inkscape.org/namespaces/inkscape"
   xmlns:sodipodi="http://sodipodi.sourceforge.net/DTD/sodipodi-0.dtd"
   xmlns="http://www.w3.org/2000/svg"
   xmlns:svg="http://www.w3.org/2000/svg">
   <sodipodi:namedview id="namedview219" pagecolor="#ffffff" bordercolor="#666666" borderopacity="1.0" inkscape:pageshadow="2" inkscape:pageopacity="0.0" inkscape:pagecheckerboard="0" showgrid="false" inkscape:zoom="1" inkscape:cx="348" inkscape:cy="603.5" inkscape:window-width="1440" inkscape:window-height="847" inkscape:window-x="0" inkscape:window-y="69" inkscape:window-maximized="0" inkscape:current-layer="svg217" inkscape:showpageshadow="2" inkscape:deskcolor="#d1d1d1" showguides="true" />
   <defs id="defs41">
      <rect x="2067.231" y="158.449" width="278.154" height="223.614" id="rect16716" />
      <rect x="920.982" y="153.904" width="2176.9684" height="899.34541" id="rect13699" />
      <clipPath id="clip0">
         <rect x="710" y="760" width="3415" height="1275" id="rect2" />
      </clipPath>
      <clipPath id="clip1">
         <rect x="1160" y="951" width="333" height="331" id="rect5" />
      </clipPath>
      <clipPath id="clip2">
         <rect x="1160" y="951" width="333" height="331" id="rect8" />
      </clipPath>
      <clipPath id="clip3">
         <rect x="590" y="802" width="1067" height="1023" id="rect11" />
      </clipPath>
      <clipPath id="clip4">
         <rect x="754" y="969" width="304" height="309" id="rect14" />
      </clipPath>
      <clipPath id="clip5">
         <rect x="754" y="969" width="304" height="309" id="rect17" />
      </clipPath>
      <clipPath id="clip6">
         <rect x="593" y="812" width="1066" height="1022" id="rect20" />
      </clipPath>
      <clipPath id="clip7">
         <rect x="752" y="1354" width="318" height="332" id="rect23" />
      </clipPath>
      <clipPath id="clip8">
         <rect x="752" y="1354" width="318" height="332" id="rect26" />
      </clipPath>
      <clipPath id="clip9">
         <rect x="593" y="801" width="1065" height="1025" id="rect29" />
      </clipPath>
      <clipPath id="clip10">
         <rect x="1160" y="1369" width="331" height="306" id="rect32" />
      </clipPath>
      <clipPath id="clip11">
         <rect x="1160" y="1369" width="331" height="306" id="rect35" />
      </clipPath>
      <clipPath id="clip12">
         <rect x="601" y="811" width="1066" height="1023" id="rect38" />
      </clipPath>
   </defs>
   <g id="g655" transform="translate(-710,-759.53409)">
      <g clip-path="url(#clip1)" id="g85" transform="translate(0,-160.30391)">
         <g clip-path="url(#clip2)" id="g83">
            <g clip-path="url(#clip3)" id="g81">
               <path d="m 134.207,890.609 -4.672,-3.185 V 712.233 c 0,-172.219 0,-174.979 4.248,-179.227 4.247,-4.247 7.007,-4.247 179.438,-4.247 172.431,0 175.191,0 179.438,4.247 4.247,4.248 4.247,7.008 4.247,178.377 0,171.369 0,174.13 -4.247,178.377 -4.247,4.247 -7.007,4.247 -179.013,4.247 -154.593,0 -175.192,-0.425 -179.439,-3.398 z m 348.259,-8.706 c 3.61,-3.186 3.823,-11.255 3.823,-168.184 0,-145.887 -0.425,-165.423 -3.398,-169.67 l -3.185,-4.672 H 313.221 c -148.435,0 -166.697,0.425 -169.67,3.398 -2.973,2.973 -3.398,21.235 -3.398,169.67 0,148.435 0.425,166.697 3.398,169.67 2.973,2.973 21.235,3.398 169.033,3.398 151.408,0 166.272,-0.213 169.882,-3.61 z" fill="#ff0000" fill-rule="nonzero" fill-opacity="1" transform="matrix(1.003,0,0,-1,591.277,1824.31)" id="path47" />
               <path d="m 438.297,847.926 c -4.884,-1.699 -9.556,-4.884 -10.618,-7.007 -1.061,-2.124 -15.077,-17.413 -31.003,-33.765 -26.757,-27.393 -29.73,-29.941 -36.737,-29.941 -5.734,0 -9.556,-1.912 -16.776,-8.494 -5.097,-4.672 -9.768,-11.255 -10.406,-14.44 -0.849,-3.823 -18.474,-22.935 -55.424,-59.884 -30.366,-30.154 -55.424,-56.911 -56.698,-60.521 -2.973,-7.644 -30.579,-36.737 -37.374,-39.497 -5.309,-1.912 -5.946,-5.097 -2.761,-13.379 1.699,-4.671 3.398,-5.521 11.255,-5.521 11.042,0 31.003,9.981 36.525,18.263 1.911,2.972 7.007,7.007 11.467,8.918 4.247,2.124 11.042,7.008 14.864,11.043 3.823,4.034 19.749,20.386 35.039,36.312 15.289,15.714 33.976,35.675 41.409,44.17 7.644,8.706 19.961,19.536 27.818,24.633 14.228,9.131 15.502,10.83 27.181,37.586 4.035,8.707 23.571,32.702 49.478,60.521 7.433,7.857 14.653,23.571 14.653,32.065 0,2.973 -0.425,2.973 -11.892,-1.062 z" fill="#ff0000" fill-rule="nonzero" fill-opacity="1" transform="matrix(1.003,0,0,-1,591.277,1824.31)" id="path49" />
               <path d="m 551.694,891.671 c -3.61,-1.911 -3.823,-12.741 -3.823,-179.014 0,-168.608 0.213,-177.102 3.823,-180.288 3.61,-3.397 19.111,-3.61 179.226,-3.61 166.909,0 175.403,0.213 178.589,3.823 3.397,3.61 3.61,19.112 3.61,179.438 0,156.505 -0.425,175.616 -3.398,178.589 -2.973,2.973 -22.085,3.398 -178.801,3.398 -115.308,-0.212 -176.891,-0.85 -179.226,-2.336 z m 347.409,-9.556 c 2.973,-2.973 3.398,-21.235 3.398,-169.67 0,-148.435 -0.425,-166.697 -3.398,-169.67 -2.973,-2.973 -21.235,-3.398 -169.67,-3.398 H 562.948 l -3.185,4.672 c -2.973,4.247 -3.398,23.783 -3.398,168.396 0,144.612 0.425,164.149 3.398,168.396 l 3.185,4.672 h 166.485 c 148.435,0 166.697,-0.425 169.67,-3.398 z" fill="#ff0000" fill-rule="nonzero" fill-opacity="1" transform="matrix(1.003,0,0,-1,591.277,1824.31)" id="path51" />
               <path d="M 806.305,854.297 C 800.147,848.563 744.086,797.811 682.078,741.325 592.465,659.569 569.107,637.272 569.107,633.237 c 0,-6.583 66.254,-78.995 72.412,-78.995 2.124,0 14.865,9.768 28.031,21.872 163.724,148.01 224.457,204.496 224.457,208.319 0,6.158 -67.741,79.844 -73.262,79.844 -1.486,0 -8.069,-4.459 -14.44,-9.98 z m 50.115,-30.579 c 18.263,-19.961 33.34,-38.011 33.34,-40.135 0,-2.123 -3.185,-6.583 -7.22,-9.98 -3.823,-3.186 -58.397,-52.664 -121.254,-109.999 -77.721,-70.714 -115.52,-104.053 -118.705,-104.053 -3.398,0 -12.529,8.494 -31.004,28.667 -14.44,15.714 -29.517,32.278 -33.764,36.525 l -7.432,8.069 4.247,5.309 c 2.123,2.973 49.903,46.93 105.752,97.683 73.049,66.466 102.354,91.736 104.265,90.25 3.185,-2.761 5.946,0 3.185,3.185 -3.185,3.823 5.309,11.043 9.131,7.645 3.611,-2.761 6.583,-0.425 3.611,2.973 -1.487,1.699 -0.85,3.61 1.911,6.158 2.76,2.548 4.459,2.973 5.521,1.274 1.911,-3.185 5.309,-0.424 3.822,3.185 -1.486,4.035 2.973,9.556 7.645,9.556 2.123,0 18.687,-16.351 36.949,-36.312 z" fill="#ff0000" fill-rule="nonzero" fill-opacity="1" transform="matrix(1.003,0,0,-1,591.277,1824.31)" id="path53" />
               <path d="m 817.135,817.984 c -11.255,-10.192 -20.386,-19.111 -20.174,-19.961 0.638,-2.123 42.471,-48.416 43.958,-48.416 0.637,0.212 10.405,8.919 21.66,19.749 l 20.81,19.536 -22.934,23.784 -22.722,23.996 z" fill="#ff0000" fill-rule="nonzero" fill-opacity="1" transform="matrix(1.003,0,0,-1,591.277,1824.31)" id="path55" />
               <path d="m 762.56,792.714 c -15.289,-14.015 -15.289,-14.015 -11.042,-18.262 4.035,-4.247 4.247,-4.247 19.112,9.344 8.281,7.432 15.077,14.652 15.077,15.926 0,2.336 -4.247,7.22 -6.583,7.22 -0.85,0 -8.282,-6.37 -16.564,-14.228 z" fill="#ff0000" fill-rule="nonzero" fill-opacity="1" transform="matrix(1.003,0,0,-1,591.277,1824.31)" id="path57" />
               <path d="m 774.452,780.186 -14.44,-13.591 8.069,-9.556 c 4.248,-5.309 8.282,-9.556 8.707,-9.556 0.425,0 8.069,6.371 16.564,14.228 l 15.926,14.015 -9.131,9.344 c -4.884,4.884 -9.556,9.131 -10.193,9.131 -0.637,-0.212 -7.645,-6.371 -15.502,-14.015 z" fill="#ff0000" fill-rule="nonzero" fill-opacity="1" transform="matrix(1.003,0,0,-1,591.277,1824.31)" id="path59" />
               <path d="m 722.001,756.19 -20.174,-18.9 4.46,-4.672 4.459,-4.671 20.598,18.687 c 11.255,10.193 20.386,19.112 20.386,19.961 0,1.486 -7.22,8.494 -8.706,8.494 -0.425,0 -9.981,-8.706 -21.023,-18.899 z" fill="#ff0000" fill-rule="nonzero" fill-opacity="1" transform="matrix(1.003,0,0,-1,591.277,1824.31)" id="path61" />
               <path d="m 675.283,689.723 c -43.745,-39.922 -79.632,-73.686 -79.632,-75.173 0,-2.76 41.196,-48.629 43.744,-48.629 1.912,0 161.177,145.462 161.177,147.161 -0.213,0.849 -10.406,12.316 -22.935,25.482 l -22.721,23.784 z" fill="#ff0000" fill-rule="nonzero" fill-opacity="1" transform="matrix(1.003,0,0,-1,591.277,1824.31)" id="path63" />
               <path d="m 801.846,750.031 c -3.186,-3.822 -3.186,-4.247 0.849,-7.857 5.309,-4.884 5.309,-7.007 -0.212,-13.166 -3.823,-3.822 -4.247,-5.308 -1.911,-8.069 1.486,-1.699 3.822,-3.185 5.096,-3.185 1.274,0.212 8.919,6.37 17.201,13.803 14.652,13.378 14.652,13.59 10.617,18.05 l -3.822,4.247 -4.672,-4.247 c -5.733,-5.309 -7.857,-5.309 -11.255,0 -3.185,5.309 -7.22,5.309 -11.891,0.424 z" fill="#ff0000" fill-rule="nonzero" fill-opacity="1" transform="matrix(1.003,0,0,-1,591.277,1824.31)" id="path65" />
               <path d="m 673.372,711.808 c -18.475,-17.201 -19.749,-18.9 -17.413,-23.359 1.274,-2.548 2.973,-4.672 3.822,-4.672 0.637,0 10.618,8.707 22.085,19.324 20.174,18.687 21.023,19.749 17.625,23.359 -2.123,2.336 -4.247,4.035 -4.884,4.035 -0.637,0 -10.193,-8.494 -21.235,-18.687 z" fill="#ff0000" fill-rule="nonzero" fill-opacity="1" transform="matrix(1.003,0,0,-1,591.277,1824.31)" id="path67" />
               <path d="m 626.23,667.638 c -11.043,-9.98 -20.174,-18.899 -20.599,-19.748 -0.212,-0.85 1.274,-3.186 3.186,-5.097 3.61,-3.185 5.096,-2.123 24.845,16.139 20.386,19.112 20.811,19.536 16.776,23.146 -4.035,3.61 -4.884,3.186 -24.208,-14.44 z" fill="#ff0000" fill-rule="nonzero" fill-opacity="1" transform="matrix(1.003,0,0,-1,591.277,1824.31)" id="path69" />
               <path d="m 586.519,632.175 -4.671,-5.096 4.247,-3.822 c 4.247,-3.823 4.459,-3.823 9.131,0.637 l 4.459,4.671 -4.247,4.247 -4.247,4.248 z" fill="#ff0000" fill-rule="nonzero" fill-opacity="1" transform="matrix(1.003,0,0,-1,591.277,1824.31)" id="path71" />
               <path d="m 140.153,489.049 c -1.699,-0.637 -4.884,-2.548 -6.795,-4.459 -3.61,-2.973 -3.823,-14.228 -3.823,-177.527 0,-154.381 0.425,-174.979 3.398,-179.226 l 3.185,-4.672 h 176.254 c 173.28,0 176.04,0 180.287,4.247 4.247,4.247 4.247,7.008 4.247,179.014 v 174.979 l -4.459,4.034 c -4.247,3.823 -10.618,4.035 -176.89,4.46 -94.71,0.212 -173.705,-0.213 -175.404,-0.85 z m 341.889,-13.378 c 4.247,-4.247 4.247,-7.008 4.247,-168.396 0,-145.037 -0.425,-164.574 -3.398,-168.821 l -3.185,-4.671 H 313.221 c -148.435,0 -166.697,0.424 -169.67,3.397 -2.973,2.973 -3.398,21.235 -3.398,169.67 0,148.435 0.425,166.698 3.398,169.671 2.973,2.972 21.235,3.397 168.821,3.397 162.662,0 165.423,0 169.67,-4.247 z" fill="#ff0000" fill-rule="nonzero" fill-opacity="1" transform="matrix(1.003,0,0,-1,591.277,1824.31)" id="path73" />
               <path d="m 236.774,451.038 c -13.378,-2.76 -30.791,-8.282 -40.347,-12.529 -5.734,-2.548 -13.803,-5.946 -17.626,-7.432 -3.822,-1.487 -7.432,-3.398 -8.069,-4.459 -1.062,-1.699 14.652,-32.703 22.509,-44.382 8.07,-12.104 19.325,-36.737 18.687,-40.984 -0.424,-3.186 -4.034,-6.159 -10.83,-9.556 -8.069,-3.823 -9.98,-5.522 -8.918,-8.494 0.849,-1.912 1.911,-6.583 2.548,-10.406 1.062,-6.37 0.637,-6.795 -12.954,-13.378 -7.857,-3.822 -15.501,-8.919 -17.2,-11.255 -3.61,-5.096 -4.247,-22.934 -1.274,-32.49 1.061,-3.397 3.397,-11.467 5.308,-18.05 4.885,-16.351 19.537,-38.223 41.622,-62.007 12.316,-13.378 20.173,-18.475 27.818,-18.475 5.096,0 24.208,10.193 44.382,23.572 12.529,8.281 17.837,9.98 20.173,6.37 2.124,-3.822 29.305,-21.66 32.703,-21.872 12.529,-0.425 70.289,39.285 102.354,70.289 23.996,23.359 25.907,28.03 13.166,33.339 -12.954,5.521 -14.015,6.158 -16.351,10.193 -1.912,2.973 -1.062,4.884 4.671,9.981 7.645,6.795 11.892,15.714 9.556,19.536 -0.849,1.274 -1.486,11.68 -1.699,23.147 0,23.359 -0.637,24.42 -22.297,40.771 -20.81,15.502 -22.297,15.927 -41.621,10.83 -11.892,-2.972 -15.289,-4.671 -13.378,-5.945 0.425,-0.425 6.583,-4.885 13.59,-9.981 14.865,-10.83 16.564,-12.954 13.166,-16.351 -3.822,-3.823 -136.118,-70.714 -139.728,-70.714 -3.822,0 -32.065,24.633 -34.826,30.154 -1.486,3.186 -1.062,4.884 1.487,6.796 1.698,1.274 34.825,15.077 73.474,30.791 38.648,15.714 70.076,29.092 69.439,29.517 -0.424,0.425 -4.459,-0.425 -8.706,-1.699 -7.22,-2.548 -8.282,-2.336 -11.467,1.699 -1.911,2.336 -7.008,5.733 -11.043,7.432 -7.857,3.398 -11.467,7.22 -22.934,25.907 -4.035,6.583 -10.193,13.379 -13.378,15.077 -3.185,1.699 -9.131,7.858 -13.166,13.379 -4.247,5.733 -9.556,10.83 -12.316,11.679 -5.097,1.274 -29.73,1.274 -36.525,0 z" fill="#ff0000" fill-rule="nonzero" fill-opacity="1" transform="matrix(1.003,0,0,-1,591.277,1824.31)" id="path75" />
               <path d="m 554.879,487.351 -7.008,-2.973 V 307.275 c 0,-168.821 0.213,-177.315 3.823,-180.5 3.61,-3.398 19.111,-3.61 179.226,-3.61 166.909,0 175.403,0.212 178.589,3.822 3.397,3.61 3.61,19.112 3.61,179.014 0,96.196 -0.85,176.041 -1.699,177.527 -4.247,6.583 -14.652,7.008 -181.562,7.008 -140.153,-0.212 -169.246,-0.637 -174.979,-3.185 z m 343.8,-11.043 c 3.61,-3.185 3.822,-11.255 3.822,-169.67 0,-148.223 -0.425,-166.485 -3.398,-169.458 -2.973,-2.973 -21.235,-3.397 -169.67,-3.397 H 562.948 l -3.185,4.671 c -2.973,4.247 -3.398,23.784 -3.398,168.396 0,144.613 0.425,164.149 3.398,168.396 l 3.185,4.672 h 165.848 c 151.408,0 166.273,-0.212 169.883,-3.61 z" fill="#ff0000" fill-rule="nonzero" fill-opacity="1" transform="matrix(1.003,0,0,-1,591.277,1824.31)" id="path77" />
               <path d="m 820.745,455.285 c -5.733,-2.973 -14.44,-9.556 -19.112,-14.864 -8.069,-9.132 -8.919,-9.556 -14.652,-7.22 -3.398,1.274 -6.371,1.911 -6.795,1.698 -0.213,-0.424 -2.336,-9.768 -4.672,-21.023 -6.795,-33.127 -8.919,-36.1 -70.077,-95.983 -132.083,-129.536 -129.96,-127.2 -129.96,-134.632 0,-3.823 1.062,-9.131 2.336,-12.104 3.185,-6.796 14.652,-12.954 21.448,-11.255 3.185,0.849 16.988,13.803 33.764,31.641 15.502,16.775 36.525,39.073 46.505,49.478 9.981,10.618 23.784,25.27 30.791,32.915 52.452,57.335 72.625,77.721 83.668,84.729 8.494,5.521 16.988,8.706 51.177,19.536 4.034,1.274 11.467,4.672 16.351,7.432 7.22,4.247 9.343,7.008 12.316,15.927 5.946,17.625 1.062,46.505 -7.644,46.505 -2.124,0 -5.946,-5.733 -10.406,-15.714 -8.706,-19.961 -15.289,-23.359 -29.304,-14.865 -0.425,0.213 2.76,8.707 7.007,18.9 10.618,25.695 8.07,29.517 -12.741,18.899 z M 606.056,191.33 c 5.096,-5.733 3.61,-14.865 -3.61,-20.173 -5.521,-4.035 -6.158,-4.035 -11.679,-0.85 -8.282,5.097 -8.919,14.653 -1.275,20.599 7.008,5.521 11.892,5.733 16.564,0.424 z" fill="#ff0000" fill-rule="nonzero" fill-opacity="1" transform="matrix(1.003,0,0,-1,591.277,1824.31)" id="path79" />
            </g>
         </g>
      </g>
      <path d="m 725,781.89209 c 0,-3.974 3.222,-7.196 7.196,-7.196 H 1079.8 c 3.98,0 7.2,3.222 7.2,7.196 v 347.60401 c 0,3.98 -3.22,7.2 -7.2,7.2 H 732.196 c -3.974,0 -7.196,-3.22 -7.196,-7.2 z" stroke="#ff0000" stroke-width="27.5" stroke-linecap="butt" stroke-linejoin="miter" stroke-miterlimit="8" stroke-opacity="1" fill="none" fill-rule="evenodd" id="path87" />
      <path d="m 1145,781.89209 c 0,-3.974 3.22,-7.196 7.2,-7.196 h 348.6 c 3.98,0 7.2,3.222 7.2,7.196 v 347.60401 c 0,3.98 -3.22,7.2 -7.2,7.2 h -348.6 c -3.98,0 -7.2,-3.22 -7.2,-7.2 z" stroke="#ff0000" stroke-width="27.5" stroke-linecap="butt" stroke-linejoin="miter" stroke-miterlimit="8" stroke-opacity="1" fill="none" fill-rule="evenodd" id="path89" />
      <path d="m 725,1181.8961 c 0,-3.98 3.222,-7.2 7.196,-7.2 H 1079.8 c 3.98,0 7.2,3.22 7.2,7.2 v 347.6 c 0,3.98 -3.22,7.2 -7.2,7.2 H 732.196 c -3.974,0 -7.196,-3.22 -7.196,-7.2 z" stroke="#ff0000" stroke-width="27.5" stroke-linecap="butt" stroke-linejoin="miter" stroke-miterlimit="8" stroke-opacity="1" fill="none" fill-rule="evenodd" id="path91" />
      <path d="m 1145,1181.8961 c 0,-3.98 3.22,-7.2 7.2,-7.2 h 348.6 c 3.98,0 7.2,3.22 7.2,7.2 v 347.6 c 0,3.98 -3.22,7.2 -7.2,7.2 h -348.6 c -3.98,0 -7.2,-3.22 -7.2,-7.2 z" stroke="#ff0000" stroke-width="27.5" stroke-linecap="butt" stroke-linejoin="miter" stroke-miterlimit="8" stroke-opacity="1" fill="none" fill-rule="evenodd" id="path93" />
      <g clip-path="url(#clip4)" id="g133" transform="translate(0,-160.30391)">
         <g clip-path="url(#clip5)" id="g131">
            <g clip-path="url(#clip6)" id="g129">
               <path d="m 134.172,890.377 -4.67,-3.184 V 712.047 c 0,-172.174 0,-174.934 4.246,-179.18 4.246,-4.245 7.005,-4.245 179.391,-4.245 172.386,0 175.146,0 179.392,4.245 4.246,4.246 4.246,7.006 4.246,178.331 0,171.324 0,174.084 -4.246,178.33 -4.246,4.246 -7.006,4.246 -178.967,4.246 -154.553,0 -175.146,-0.425 -179.392,-3.397 z m 348.169,-8.704 c 3.609,-3.185 3.821,-11.252 3.821,-168.14 0,-145.849 -0.425,-165.38 -3.397,-169.626 l -3.184,-4.671 H 313.139 c -148.396,0 -166.654,0.425 -169.626,3.397 -2.972,2.972 -3.396,21.23 -3.396,169.626 0,148.396 0.424,166.654 3.396,169.626 2.972,2.972 21.23,3.397 168.989,3.397 151.369,0 166.23,-0.212 169.839,-3.609 z" fill="#ff0000" fill-rule="nonzero" fill-opacity="1" transform="matrix(1.00228,0,0,-1,594.036,1833.25)" id="path95" />
               <path d="m 438.183,847.705 c -4.883,-1.698 -9.554,-4.883 -10.615,-7.006 -1.062,-2.123 -15.073,-17.408 -30.996,-33.755 -26.749,-27.386 -29.721,-29.934 -36.727,-29.934 -5.732,0 -9.554,-1.911 -16.772,-8.492 -5.095,-4.67 -9.765,-11.252 -10.402,-14.436 -0.85,-3.822 -18.47,-22.928 -55.41,-59.868 -30.359,-30.146 -55.41,-56.896 -56.684,-60.505 -2.972,-7.643 -30.57,-36.728 -37.364,-39.487 -5.307,-1.911 -5.944,-5.096 -2.76,-13.375 1.699,-4.671 3.397,-5.52 11.252,-5.52 11.039,0 30.995,9.978 36.515,18.258 1.911,2.972 7.006,7.006 11.464,8.916 4.246,2.123 11.04,7.006 14.861,11.04 3.821,4.033 19.744,20.38 35.029,36.303 15.286,15.71 33.968,35.666 41.398,44.158 7.643,8.704 19.956,19.531 27.811,24.626 14.224,9.129 15.498,10.827 27.174,37.577 4.034,8.704 23.565,32.694 49.466,60.505 7.43,7.855 14.648,23.565 14.648,32.057 0,2.972 -0.424,2.972 -11.888,-1.062 z" fill="#ff0000" fill-rule="nonzero" fill-opacity="1" transform="matrix(1.00228,0,0,-1,594.036,1833.25)" id="path97" />
               <path d="m 551.55,891.439 c -3.609,-1.911 -3.822,-12.738 -3.822,-178.968 0,-168.564 0.213,-177.056 3.822,-180.24 3.609,-3.397 19.106,-3.609 179.179,-3.609 166.866,0 175.358,0.212 178.543,3.821 3.396,3.609 3.609,19.107 3.609,179.392 0,156.463 -0.425,175.57 -3.397,178.542 -2.972,2.972 -22.079,3.397 -178.755,3.397 -115.278,-0.213 -176.844,-0.849 -179.179,-2.335 z m 347.319,-9.554 c 2.972,-2.972 3.397,-21.23 3.397,-169.626 0,-148.396 -0.425,-166.654 -3.397,-169.626 -2.972,-2.972 -21.23,-3.397 -169.626,-3.397 H 562.802 l -3.185,4.671 c -2.972,4.246 -3.397,23.777 -3.397,168.352 0,144.575 0.425,164.106 3.397,168.352 l 3.185,4.671 h 166.441 c 148.396,0 166.654,-0.425 169.626,-3.397 z" fill="#ff0000" fill-rule="nonzero" fill-opacity="1" transform="matrix(1.00228,0,0,-1,594.036,1833.25)" id="path99" />
               <path d="m 806.095,854.074 c -6.157,-5.732 -62.203,-56.471 -124.194,-112.942 -89.59,-81.735 -112.943,-104.026 -112.943,-108.06 0,-6.581 66.237,-78.975 72.394,-78.975 2.123,0 14.861,9.766 28.023,21.867 163.682,147.972 224.399,204.443 224.399,208.264 0,6.157 -67.723,79.824 -73.243,79.824 -1.486,0 -8.067,-4.458 -14.436,-9.978 z m 50.102,-30.571 c 18.258,-19.956 33.331,-38.001 33.331,-40.124 0,-2.123 -3.185,-6.581 -7.218,-9.978 -3.822,-3.185 -58.382,-52.65 -121.222,-109.97 -77.701,-70.696 -115.49,-104.026 -118.675,-104.026 -3.397,0 -12.525,8.492 -30.995,28.66 -14.437,15.71 -29.51,32.269 -33.756,36.515 l -7.43,8.067 4.246,5.308 c 2.123,2.972 49.89,46.918 105.724,97.657 73.031,66.449 102.328,91.713 104.238,90.227 3.185,-2.76 5.945,0 3.185,3.184 -3.185,3.821 5.307,11.039 9.129,7.643 3.609,-2.76 6.581,-0.425 3.609,2.972 -1.486,1.698 -0.849,3.609 1.91,6.156 2.76,2.548 4.459,2.973 5.52,1.274 1.911,-3.184 5.308,-0.424 3.822,3.185 -1.487,4.033 2.972,9.553 7.642,9.553 2.123,0 18.682,-16.347 36.94,-36.303 z" fill="#ff0000" fill-rule="nonzero" fill-opacity="1" transform="matrix(1.00228,0,0,-1,594.036,1833.25)" id="path101" />
               <path d="m 816.922,817.771 c -11.252,-10.19 -20.381,-19.107 -20.168,-19.956 0.637,-2.123 42.459,-48.404 43.945,-48.404 0.637,0.213 10.403,8.917 21.655,19.744 l 20.805,19.531 -22.928,23.778 -22.716,23.989 z" fill="#ff0000" fill-rule="nonzero" fill-opacity="1" transform="matrix(1.00228,0,0,-1,594.036,1833.25)" id="path103" />
               <path d="m 762.361,792.508 c -15.285,-14.012 -15.285,-14.012 -11.039,-18.258 4.034,-4.246 4.246,-4.246 19.107,9.341 8.279,7.431 15.073,14.649 15.073,15.923 0,2.335 -4.246,7.218 -6.581,7.218 -0.85,0 -8.28,-6.369 -16.56,-14.224 z" fill="#ff0000" fill-rule="nonzero" fill-opacity="1" transform="matrix(1.00228,0,0,-1,594.036,1833.25)" id="path105" />
               <path d="m 774.25,779.982 -14.436,-13.587 8.067,-9.553 c 4.246,-5.308 8.28,-9.554 8.704,-9.554 0.425,0 8.068,6.369 16.56,14.224 l 15.922,14.012 -9.129,9.341 c -4.883,4.883 -9.553,9.129 -10.19,9.129 -0.637,-0.213 -7.643,-6.369 -15.498,-14.012 z" fill="#ff0000" fill-rule="nonzero" fill-opacity="1" transform="matrix(1.00228,0,0,-1,594.036,1833.25)" id="path107" />
               <path d="m 721.813,755.992 -20.169,-18.894 4.459,-4.671 4.458,-4.67 20.593,18.682 c 11.251,10.19 20.38,19.107 20.38,19.956 0,1.486 -7.218,8.492 -8.704,8.492 -0.425,0 -9.978,-8.704 -21.017,-18.895 z" fill="#ff0000" fill-rule="nonzero" fill-opacity="1" transform="matrix(1.00228,0,0,-1,594.036,1833.25)" id="path109" />
               <path d="m 675.107,689.543 c -43.733,-39.912 -79.612,-73.667 -79.612,-75.153 0,-2.76 41.186,-48.616 43.734,-48.616 1.91,0 161.134,145.424 161.134,147.122 -0.213,0.849 -10.403,12.313 -22.928,25.476 l -22.716,23.777 z" fill="#ff0000" fill-rule="nonzero" fill-opacity="1" transform="matrix(1.00228,0,0,-1,594.036,1833.25)" id="path111" />
               <path d="m 801.637,749.836 c -3.185,-3.821 -3.185,-4.246 0.849,-7.855 5.307,-4.883 5.307,-7.006 -0.213,-13.163 -3.821,-3.821 -4.246,-5.307 -1.91,-8.067 1.486,-1.698 3.821,-3.184 5.095,-3.184 1.274,0.212 8.916,6.369 17.196,13.799 14.649,13.375 14.649,13.587 10.615,18.045 l -3.821,4.246 -4.671,-4.246 c -5.732,-5.307 -7.855,-5.307 -11.252,0 -3.184,5.308 -7.218,5.308 -11.888,0.425 z" fill="#ff0000" fill-rule="nonzero" fill-opacity="1" transform="matrix(1.00228,0,0,-1,594.036,1833.25)" id="path113" />
               <path d="m 673.196,711.622 c -18.47,-17.196 -19.743,-18.894 -17.408,-23.352 1.274,-2.548 2.972,-4.671 3.821,-4.671 0.637,0 10.615,8.704 22.079,19.319 20.169,18.682 21.018,19.744 17.621,23.353 -2.123,2.335 -4.246,4.033 -4.883,4.033 -0.637,0 -10.19,-8.491 -21.23,-18.682 z" fill="#ff0000" fill-rule="nonzero" fill-opacity="1" transform="matrix(1.00228,0,0,-1,594.036,1833.25)" id="path115" />
               <path d="m 626.066,667.464 c -11.039,-9.978 -20.168,-18.894 -20.593,-19.743 -0.212,-0.85 1.274,-3.185 3.185,-5.096 3.609,-3.184 5.095,-2.122 24.839,16.135 20.38,19.107 20.805,19.532 16.771,23.141 -4.033,3.609 -4.883,3.184 -24.202,-14.437 z" fill="#ff0000" fill-rule="nonzero" fill-opacity="1" transform="matrix(1.00228,0,0,-1,594.036,1833.25)" id="path117" />
               <path d="m 586.367,632.011 -4.671,-5.096 4.246,-3.821 c 4.246,-3.821 4.458,-3.821 9.129,0.637 l 4.458,4.671 -4.246,4.245 -4.246,4.246 z" fill="#ff0000" fill-rule="nonzero" fill-opacity="1" transform="matrix(1.00228,0,0,-1,594.036,1833.25)" id="path119" />
               <path d="m 140.117,488.922 c -1.699,-0.637 -4.883,-2.548 -6.794,-4.458 -3.609,-2.973 -3.821,-14.224 -3.821,-177.481 0,-154.341 0.424,-174.934 3.396,-179.18 l 3.185,-4.67 H 312.29 c 173.235,0 175.995,0 180.241,4.246 4.246,4.246 4.246,7.006 4.246,178.967 v 174.933 l -4.458,4.034 c -4.246,3.821 -10.615,4.033 -176.844,4.458 -94.685,0.212 -173.66,-0.212 -175.358,-0.849 z m 341.799,-13.375 c 4.246,-4.246 4.246,-7.006 4.246,-168.352 0,-144.999 -0.425,-164.531 -3.397,-168.777 l -3.184,-4.67 H 313.139 c -148.396,0 -166.654,0.424 -169.626,3.396 -2.972,2.973 -3.396,21.23 -3.396,169.626 0,148.397 0.424,166.654 3.396,169.626 2.972,2.972 21.23,3.397 168.777,3.397 162.62,0 165.38,0 169.626,-4.246 z" fill="#ff0000" fill-rule="nonzero" fill-opacity="1" transform="matrix(1.00228,0,0,-1,594.036,1833.25)" id="path121" />
               <path d="m 236.712,450.921 c -13.375,-2.76 -30.783,-8.28 -40.337,-12.526 -5.732,-2.548 -13.799,-5.944 -17.62,-7.43 -3.822,-1.487 -7.431,-3.397 -8.068,-4.459 -1.061,-1.698 14.649,-32.694 22.504,-44.37 8.067,-12.101 19.319,-36.727 18.682,-40.973 -0.424,-3.185 -4.033,-6.157 -10.827,-9.554 -8.067,-3.821 -9.978,-5.52 -8.916,-8.492 0.849,-1.91 1.91,-6.581 2.547,-10.402 1.062,-6.369 0.637,-6.794 -12.95,-13.375 -7.855,-3.821 -15.498,-8.917 -17.196,-11.252 -3.609,-5.095 -4.246,-22.928 -1.274,-32.481 1.062,-3.397 3.397,-11.465 5.307,-18.046 4.883,-16.347 19.532,-38.213 41.611,-61.991 12.313,-13.374 20.168,-18.47 27.811,-18.47 5.095,0 24.202,10.191 44.37,23.565 12.526,8.28 17.833,9.978 20.168,6.369 2.123,-3.821 29.297,-21.654 32.694,-21.866 12.526,-0.425 70.271,39.275 102.328,70.27 23.989,23.353 25.9,28.024 13.162,33.331 -12.95,5.52 -14.011,6.157 -16.347,10.19 -1.91,2.972 -1.061,4.883 4.671,9.978 7.643,6.794 11.889,15.71 9.553,19.532 -0.849,1.273 -1.486,11.676 -1.698,23.14 0,23.353 -0.637,24.414 -22.291,40.761 -20.806,15.498 -22.292,15.923 -41.611,10.828 -11.888,-2.973 -15.285,-4.671 -13.374,-5.945 0.424,-0.424 6.581,-4.883 13.587,-9.978 14.86,-10.827 16.559,-12.95 13.162,-16.347 -3.821,-3.821 -136.083,-70.695 -139.692,-70.695 -3.821,0 -32.057,24.627 -34.817,30.146 -1.486,3.185 -1.061,4.883 1.486,6.794 1.699,1.274 34.817,15.073 73.455,30.783 38.639,15.71 70.059,29.085 69.422,29.51 -0.425,0.424 -4.459,-0.425 -8.704,-1.699 -7.219,-2.547 -8.28,-2.335 -11.465,1.699 -1.91,2.335 -7.005,5.732 -11.039,7.43 -7.855,3.397 -11.464,7.218 -22.928,25.9 -4.034,6.582 -10.191,13.375 -13.375,15.073 -3.184,1.699 -9.129,7.855 -13.162,13.375 -4.246,5.732 -9.554,10.827 -12.314,11.677 -5.095,1.273 -29.721,1.273 -36.515,0 z" fill="#ff0000" fill-rule="nonzero" fill-opacity="1" transform="matrix(1.00228,0,0,-1,594.036,1833.25)" id="path123" />
               <path d="m 554.734,487.223 -7.006,-2.972 V 307.195 c 0,-168.777 0.213,-177.269 3.822,-180.453 3.609,-3.397 19.106,-3.609 179.179,-3.609 166.866,0 175.358,0.212 178.543,3.821 3.396,3.609 3.609,19.107 3.609,178.967 0,96.171 -0.85,175.995 -1.699,177.481 -4.246,6.581 -14.648,7.006 -181.514,7.006 -140.117,-0.212 -169.202,-0.637 -174.934,-3.185 z m 343.71,-11.039 c 3.609,-3.184 3.822,-11.252 3.822,-169.626 0,-148.184 -0.425,-166.441 -3.397,-169.414 -2.972,-2.972 -21.23,-3.396 -169.626,-3.396 H 562.802 l -3.185,4.67 c -2.972,4.246 -3.397,23.778 -3.397,168.352 0,144.575 0.425,164.107 3.397,168.352 l 3.185,4.671 h 165.804 c 151.368,0 166.229,-0.212 169.838,-3.609 z" fill="#ff0000" fill-rule="nonzero" fill-opacity="1" transform="matrix(1.00228,0,0,-1,594.036,1833.25)" id="path125" />
               <path d="m 820.531,455.167 c -5.732,-2.973 -14.436,-9.554 -19.107,-14.861 -8.067,-9.129 -8.916,-9.554 -14.648,-7.218 -3.397,1.273 -6.369,1.91 -6.794,1.698 -0.212,-0.425 -2.335,-9.766 -4.67,-21.018 -6.794,-33.118 -8.917,-36.09 -70.059,-95.958 C 573.204,188.308 575.327,190.643 575.327,183.213 c 0,-3.821 1.062,-9.129 2.335,-12.101 3.185,-6.793 14.649,-12.95 21.442,-11.252 3.185,0.849 16.984,13.8 33.756,31.633 15.498,16.771 36.515,39.062 46.493,49.465 9.978,10.615 23.777,25.263 30.783,32.906 52.438,57.321 72.606,77.701 83.645,84.707 8.492,5.52 16.984,8.704 51.164,19.531 4.034,1.274 11.464,4.671 16.347,7.431 7.218,4.246 9.341,7.006 12.313,15.922 5.945,17.621 1.062,46.493 -7.642,46.493 -2.123,0 -5.945,-5.732 -10.403,-15.71 -8.704,-19.956 -15.285,-23.352 -29.297,-14.86 -0.424,0.212 2.76,8.704 7.006,18.894 10.615,25.688 8.067,29.509 -12.738,18.895 z M 605.898,191.28 c 5.095,-5.732 3.609,-14.861 -3.609,-20.168 -5.52,-4.034 -6.157,-4.034 -11.677,-0.849 -8.279,5.095 -8.916,14.648 -1.273,20.593 7.006,5.519 11.888,5.732 16.559,0.424 z" fill="#ff0000" fill-rule="nonzero" fill-opacity="1" transform="matrix(1.00228,0,0,-1,594.036,1833.25)" id="path127" />
            </g>
         </g>
      </g>
      <g clip-path="url(#clip7)" id="g173" transform="translate(0,-160.30391)">
         <g clip-path="url(#clip8)" id="g171">
            <g clip-path="url(#clip9)" id="g169">
               <path d="m 134.336,891.461 -4.677,-3.189 V 712.913 c 0,-172.383 0,-175.146 4.251,-179.397 4.252,-4.251 7.015,-4.251 179.61,-4.251 172.596,0 175.359,0 179.61,4.251 4.251,4.251 4.251,7.014 4.251,178.547 0,171.533 0,174.296 -4.251,178.547 -4.251,4.252 -7.014,4.252 -179.185,4.252 -154.74,0 -175.358,-0.426 -179.609,-3.401 z m 348.592,-8.715 c 3.613,-3.189 3.826,-11.266 3.826,-168.345 0,-146.026 -0.425,-165.581 -3.401,-169.832 l -3.189,-4.676 H 313.52 c -148.576,0 -166.856,0.425 -169.832,3.401 -2.976,2.975 -3.401,21.255 -3.401,169.832 0,148.577 0.425,166.857 3.401,169.832 2.976,2.976 21.256,3.401 169.195,3.401 151.552,0 166.431,-0.212 170.045,-3.613 z" fill="#ff0000" fill-rule="nonzero" fill-opacity="1" transform="matrix(1,0,0,-1.00207,594.324,1825.67)" id="path135" />
               <path d="m 438.716,848.737 c -4.889,-1.701 -9.565,-4.889 -10.628,-7.015 -1.063,-2.125 -15.091,-17.429 -31.033,-33.796 -26.782,-27.42 -29.758,-29.97 -36.772,-29.97 -5.739,0 -9.565,-1.913 -16.792,-8.503 -5.102,-4.676 -9.778,-11.265 -10.415,-14.453 -0.851,-3.826 -18.493,-22.956 -55.478,-59.941 -30.395,-30.183 -55.477,-56.965 -56.752,-60.579 -2.976,-7.652 -30.608,-36.772 -37.41,-39.535 -5.314,-1.913 -5.952,-5.102 -2.763,-13.391 1.7,-4.676 3.401,-5.527 11.265,-5.527 11.053,0 31.033,9.99 36.56,18.28 1.913,2.976 7.014,7.014 11.478,8.927 4.251,2.126 11.053,7.015 14.879,11.053 3.826,4.039 19.768,20.406 35.072,36.347 15.304,15.73 34.009,35.71 41.448,44.212 7.652,8.715 19.98,19.555 27.845,24.657 14.241,9.14 15.517,10.84 27.207,37.622 4.039,8.715 23.594,32.734 49.526,60.579 7.439,7.864 14.666,23.593 14.666,32.096 0,2.975 -0.425,2.975 -11.903,-1.063 z" fill="#ff0000" fill-rule="nonzero" fill-opacity="1" transform="matrix(1,0,0,-1.00207,594.324,1825.67)" id="path137" />
               <path d="m 552.221,892.523 c -3.614,-1.913 -3.826,-12.753 -3.826,-179.184 0,-168.77 0.212,-177.272 3.826,-180.461 3.613,-3.401 19.13,-3.613 179.397,-3.613 167.07,0 175.572,0.212 178.76,3.826 3.401,3.613 3.614,19.13 3.614,179.61 0,156.654 -0.426,175.784 -3.401,178.76 -2.976,2.975 -22.106,3.401 -178.973,3.401 -115.418,-0.213 -177.059,-0.851 -179.397,-2.339 z m 347.742,-9.565 c 2.976,-2.975 3.401,-21.255 3.401,-169.832 0,-148.577 -0.425,-166.857 -3.401,-169.832 -2.976,-2.976 -21.256,-3.401 -169.833,-3.401 H 563.486 l -3.188,4.676 c -2.976,4.251 -3.401,23.806 -3.401,168.557 0,144.751 0.425,164.306 3.401,168.557 l 3.188,4.676 H 730.13 c 148.577,0 166.857,-0.425 169.833,-3.401 z" fill="#ff0000" fill-rule="nonzero" fill-opacity="1" transform="matrix(1,0,0,-1.00207,594.324,1825.67)" id="path139" />
               <path d="M 807.076,855.114 C 800.912,849.375 744.797,798.574 682.73,742.034 593.032,660.2 569.651,637.881 569.651,633.843 c 0,-6.59 66.317,-79.071 72.481,-79.071 2.126,0 14.879,9.777 28.058,21.893 163.88,148.152 224.672,204.692 224.672,208.518 0,6.164 -67.806,79.921 -73.332,79.921 -1.488,0 -8.077,-4.464 -14.454,-9.99 z m 50.163,-30.609 c 18.28,-19.98 33.371,-38.047 33.371,-40.173 0,-2.125 -3.188,-6.589 -7.227,-9.99 -3.826,-3.188 -58.452,-52.714 -121.369,-110.104 -77.796,-70.781 -115.631,-104.152 -118.819,-104.152 -3.401,0 -12.541,8.502 -31.033,28.695 -14.454,15.729 -29.545,32.308 -33.797,36.559 l -7.439,8.077 4.251,5.314 c 2.126,2.976 49.951,46.975 105.853,97.776 73.119,66.53 102.452,91.824 104.365,90.337 3.188,-2.764 5.952,0 3.188,3.188 -3.188,3.826 5.314,11.053 9.14,7.652 3.614,-2.763 6.59,-0.425 3.614,2.976 -1.488,1.7 -0.85,3.613 1.913,6.164 2.763,2.551 4.464,2.976 5.526,1.275 1.913,-3.188 5.314,-0.425 3.826,3.189 -1.488,4.038 2.976,9.565 7.652,9.565 2.126,0 18.705,-16.367 36.985,-36.348 z" fill="#ff0000" fill-rule="nonzero" fill-opacity="1" transform="matrix(1,0,0,-1.00207,594.324,1825.67)" id="path141" />
               <path d="m 817.916,818.766 c -11.265,-10.202 -20.405,-19.13 -20.193,-19.98 0.638,-2.125 42.512,-48.463 43.999,-48.463 0.638,0.213 10.416,8.928 21.681,19.768 l 20.831,19.555 -22.956,23.807 -22.744,24.018 z" fill="#ff0000" fill-rule="nonzero" fill-opacity="1" transform="matrix(1,0,0,-1.00207,594.324,1825.67)" id="path143" />
               <path d="m 763.289,793.472 c -15.304,-14.028 -15.304,-14.028 -11.053,-18.28 4.039,-4.251 4.251,-4.251 19.13,9.353 8.29,7.439 15.092,14.666 15.092,15.942 0,2.338 -4.251,7.227 -6.589,7.227 -0.851,0 -8.29,-6.377 -16.58,-14.242 z" fill="#ff0000" fill-rule="nonzero" fill-opacity="1" transform="matrix(1,0,0,-1.00207,594.324,1825.67)" id="path145" />
               <path d="m 775.192,780.931 -14.453,-13.603 8.077,-9.565 c 4.251,-5.314 8.289,-9.565 8.715,-9.565 0.425,0 8.077,6.376 16.579,14.241 l 15.942,14.029 -9.14,9.352 c -4.889,4.889 -9.565,9.14 -10.203,9.14 -0.638,-0.212 -7.652,-6.377 -15.517,-14.029 z" fill="#ff0000" fill-rule="nonzero" fill-opacity="1" transform="matrix(1,0,0,-1.00207,594.324,1825.67)" id="path147" />
               <path d="m 722.691,756.913 -20.193,-18.918 4.464,-4.676 4.464,-4.676 20.618,18.705 c 11.265,10.202 20.405,19.13 20.405,19.98 0,1.488 -7.227,8.502 -8.715,8.502 -0.425,0 -9.99,-8.715 -21.043,-18.917 z" fill="#ff0000" fill-rule="nonzero" fill-opacity="1" transform="matrix(1,0,0,-1.00207,594.324,1825.67)" id="path149" />
               <path d="m 675.929,690.383 c -43.787,-39.961 -79.709,-73.758 -79.709,-75.245 0,-2.764 41.236,-48.676 43.787,-48.676 1.913,0 161.33,145.601 161.33,147.302 -0.213,0.85 -10.415,12.328 -22.956,25.506 l -22.744,23.807 z" fill="#ff0000" fill-rule="nonzero" fill-opacity="1" transform="matrix(1,0,0,-1.00207,594.324,1825.67)" id="path151" />
               <path d="m 802.612,750.748 c -3.188,-3.826 -3.188,-4.251 0.85,-7.864 5.314,-4.889 5.314,-7.014 -0.212,-13.179 -3.826,-3.826 -4.251,-5.314 -1.913,-8.077 1.488,-1.7 3.826,-3.188 5.101,-3.188 1.276,0.212 8.928,6.377 17.217,13.816 14.667,13.391 14.667,13.604 10.628,18.067 l -3.826,4.251 -4.676,-4.251 c -5.739,-5.314 -7.865,-5.314 -11.266,0 -3.188,5.314 -7.227,5.314 -11.903,0.425 z" fill="#ff0000" fill-rule="nonzero" fill-opacity="1" transform="matrix(1,0,0,-1.00207,594.324,1825.67)" id="path153" />
               <path d="m 674.016,712.488 c -18.493,-17.217 -19.768,-18.917 -17.43,-23.381 1.275,-2.551 2.976,-4.676 3.826,-4.676 0.638,0 10.628,8.715 22.106,19.342 20.193,18.705 21.043,19.768 17.642,23.382 -2.126,2.338 -4.251,4.038 -4.889,4.038 -0.637,0 -10.202,-8.502 -21.255,-18.705 z" fill="#ff0000" fill-rule="nonzero" fill-opacity="1" transform="matrix(1,0,0,-1.00207,594.324,1825.67)" id="path155" />
               <path d="m 626.828,668.277 c -11.053,-9.991 -20.193,-18.918 -20.618,-19.768 -0.212,-0.85 1.276,-3.188 3.189,-5.101 3.613,-3.189 5.101,-2.126 24.869,16.154 20.405,19.13 20.83,19.555 16.792,23.168 -4.039,3.614 -4.889,3.189 -24.232,-14.453 z" fill="#ff0000" fill-rule="nonzero" fill-opacity="1" transform="matrix(1,0,0,-1.00207,594.324,1825.67)" id="path157" />
               <path d="m 587.08,632.78 -4.676,-5.102 4.251,-3.826 c 4.251,-3.826 4.464,-3.826 9.14,0.638 l 4.464,4.676 -4.251,4.251 -4.252,4.252 z" fill="#ff0000" fill-rule="nonzero" fill-opacity="1" transform="matrix(1,0,0,-1.00207,594.324,1825.67)" id="path159" />
               <path d="m 140.287,489.517 c -1.7,-0.638 -4.889,-2.551 -6.802,-4.464 -3.613,-2.976 -3.826,-14.241 -3.826,-177.697 0,-154.528 0.425,-175.146 3.401,-179.397 l 3.189,-4.676 H 312.67 c 173.446,0 176.209,0 180.46,4.251 4.251,4.251 4.251,7.014 4.251,179.185 v 175.146 l -4.463,4.038 c -4.251,3.826 -10.628,4.039 -177.06,4.464 -94.8,0.213 -173.87,-0.212 -175.571,-0.85 z m 342.216,-13.391 c 4.251,-4.251 4.251,-7.014 4.251,-168.557 0,-145.176 -0.425,-164.731 -3.401,-168.982 l -3.189,-4.677 H 313.52 c -148.576,0 -166.856,0.426 -169.832,3.401 -2.976,2.976 -3.401,21.256 -3.401,169.833 0,148.576 0.425,166.856 3.401,169.832 2.976,2.976 21.256,3.401 168.982,3.401 162.818,0 165.581,0 169.833,-4.251 z" fill="#ff0000" fill-rule="nonzero" fill-opacity="1" transform="matrix(1,0,0,-1.00207,594.324,1825.67)" id="path161" />
               <path d="m 237,451.469 c -13.391,-2.763 -30.82,-8.289 -40.386,-12.54 -5.739,-2.551 -13.816,-5.952 -17.642,-7.44 -3.826,-1.488 -7.439,-3.401 -8.077,-4.464 -1.063,-1.7 14.667,-32.733 22.531,-44.424 8.077,-12.116 19.343,-36.772 18.705,-41.023 -0.425,-3.189 -4.039,-6.164 -10.84,-9.565 -8.077,-3.826 -9.99,-5.527 -8.928,-8.503 0.851,-1.912 1.913,-6.589 2.551,-10.415 1.063,-6.376 0.638,-6.802 -12.966,-13.391 -7.864,-3.826 -15.517,-8.927 -17.217,-11.265 -3.613,-5.102 -4.251,-22.956 -1.275,-32.521 1.062,-3.401 3.401,-11.478 5.314,-18.068 4.888,-16.366 19.555,-38.26 41.661,-62.066 12.328,-13.391 20.192,-18.492 27.844,-18.492 5.102,0 24.232,10.202 44.425,23.593 12.541,8.29 17.854,9.99 20.193,6.377 2.125,-3.826 29.332,-21.681 32.733,-21.893 12.541,-0.425 70.356,39.323 102.452,70.356 24.019,23.381 25.932,28.057 13.179,33.371 -12.966,5.527 -14.029,6.164 -16.367,10.203 -1.913,2.976 -1.063,4.889 4.676,9.99 7.652,6.802 11.903,15.729 9.565,19.555 -0.85,1.275 -1.488,11.691 -1.7,23.169 0,23.381 -0.638,24.444 -22.319,40.811 -20.83,15.516 -22.318,15.941 -41.661,10.84 -11.903,-2.976 -15.304,-4.676 -13.391,-5.952 0.425,-0.425 6.59,-4.888 13.604,-9.99 14.879,-10.84 16.579,-12.966 13.178,-16.367 -3.826,-3.826 -136.248,-70.781 -139.862,-70.781 -3.826,0 -32.096,24.657 -34.859,30.183 -1.488,3.188 -1.063,4.889 1.488,6.802 1.701,1.275 34.859,15.091 73.545,30.821 38.685,15.729 70.143,29.12 69.505,29.545 -0.425,0.425 -4.463,-0.425 -8.714,-1.701 -7.227,-2.55 -8.29,-2.338 -11.478,1.701 -1.913,2.338 -7.015,5.739 -11.053,7.439 -7.865,3.401 -11.478,7.227 -22.956,25.932 -4.039,6.589 -10.203,13.391 -13.391,15.092 -3.189,1.7 -9.14,7.864 -13.179,13.391 -4.251,5.739 -9.565,10.84 -12.328,11.69 -5.102,1.276 -29.758,1.276 -36.56,0 z" fill="#ff0000" fill-rule="nonzero" fill-opacity="1" transform="matrix(1,0,0,-1.00207,594.324,1825.67)" id="path163" />
               <path d="m 555.409,487.816 -7.014,-2.975 V 307.569 c 0,-168.982 0.212,-177.485 3.826,-180.673 3.613,-3.401 19.13,-3.613 179.397,-3.613 167.07,0 175.572,0.212 178.76,3.826 3.401,3.613 3.614,19.13 3.614,179.184 0,96.288 -0.851,176.21 -1.701,177.697 -4.251,6.59 -14.666,7.015 -181.735,7.015 -140.288,-0.213 -169.408,-0.638 -175.147,-3.189 z m 344.129,-11.052 c 3.613,-3.189 3.826,-11.266 3.826,-169.833 0,-148.364 -0.425,-166.644 -3.401,-169.62 -2.976,-2.975 -21.256,-3.401 -169.833,-3.401 H 563.486 l -3.188,4.677 c -2.976,4.251 -3.401,23.806 -3.401,168.557 0,144.75 0.425,164.306 3.401,168.557 l 3.188,4.676 h 166.007 c 151.552,0 166.431,-0.213 170.045,-3.613 z" fill="#ff0000" fill-rule="nonzero" fill-opacity="1" transform="matrix(1,0,0,-1.00207,594.324,1825.67)" id="path165" />
               <path d="m 821.53,455.72 c -5.739,-2.975 -14.454,-9.565 -19.13,-14.878 -8.078,-9.14 -8.928,-9.566 -14.667,-7.227 -3.401,1.275 -6.376,1.913 -6.802,1.7 -0.212,-0.425 -2.338,-9.778 -4.676,-21.043 -6.802,-33.159 -8.927,-36.135 -70.143,-96.075 -132.21,-129.66 -130.085,-127.322 -130.085,-134.761 0,-3.826 1.063,-9.14 2.338,-12.116 3.189,-6.802 14.667,-12.966 21.469,-11.265 3.188,0.85 17.004,13.816 33.796,31.671 15.517,16.792 36.56,39.11 46.55,49.525 9.99,10.628 23.806,25.294 30.82,32.946 52.502,57.391 72.695,77.796 83.748,84.81 8.502,5.527 17.004,8.715 51.226,19.556 4.038,1.275 11.478,4.676 16.366,7.439 7.227,4.251 9.353,7.014 12.329,15.942 5.951,17.642 1.062,46.55 -7.652,46.55 -2.126,0 -5.952,-5.739 -10.416,-15.73 -8.714,-19.98 -15.304,-23.381 -29.332,-14.879 -0.425,0.213 2.763,8.715 7.014,18.918 10.628,25.719 8.077,29.545 -12.753,18.917 z M 606.635,191.513 c 5.102,-5.739 3.614,-14.879 -3.613,-20.193 -5.527,-4.038 -6.164,-4.038 -11.691,-0.85 -8.289,5.101 -8.927,14.666 -1.275,20.618 7.014,5.526 11.903,5.739 16.579,0.425 z" fill="#ff0000" fill-rule="nonzero" fill-opacity="1" transform="matrix(1,0,0,-1.00207,594.324,1825.67)" id="path167" />
            </g>
         </g>
      </g>
      <g clip-path="url(#clip10)" id="g213" transform="translate(0,-160.30391)">
         <g clip-path="url(#clip11)" id="g211">
            <g clip-path="url(#clip12)" id="g209">
               <path d="m 134.3,891.224 -4.675,-3.187 V 712.725 c 0,-172.338 0,-175.1 4.25,-179.35 4.25,-4.25 7.012,-4.25 179.562,-4.25 172.55,0 175.313,0 179.563,4.25 4.25,4.25 4.25,7.012 4.25,178.5 0,171.487 0,174.249 -4.25,178.499 -4.25,4.25 -7.013,4.25 -179.138,4.25 -154.7,0 -175.312,-0.425 -179.562,-3.4 z m 348.5,-8.712 c 3.612,-3.188 3.825,-11.263 3.825,-168.3 0,-145.987 -0.425,-165.537 -3.4,-169.787 l -3.188,-4.675 h -166.6 c -148.537,0 -166.812,0.425 -169.787,3.4 -2.975,2.975 -3.4,21.25 -3.4,169.787 0,148.537 0.425,166.812 3.4,169.787 2.975,2.975 21.25,3.4 169.15,3.4 151.512,0 166.387,-0.212 170,-3.612 z" fill="#ff0000" fill-rule="nonzero" fill-opacity="1" transform="matrix(1.00126,0,0,-1,601.628,1833.37)" id="path175" />
               <path d="m 438.6,848.512 c -4.888,-1.7 -9.563,-4.887 -10.625,-7.012 -1.063,-2.125 -15.088,-17.425 -31.025,-33.788 -26.775,-27.413 -29.75,-29.962 -36.763,-29.962 -5.737,0 -9.562,-1.913 -16.787,-8.5 -5.1,-4.675 -9.775,-11.263 -10.413,-14.45 -0.85,-3.825 -18.487,-22.95 -55.462,-59.925 -30.388,-30.175 -55.463,-56.95 -56.738,-60.563 -2.975,-7.65 -30.6,-36.762 -37.4,-39.525 -5.312,-1.912 -5.95,-5.1 -2.762,-13.387 1.7,-4.675 3.4,-5.525 11.262,-5.525 11.05,0 31.025,9.987 36.55,18.275 1.913,2.975 7.013,7.012 11.475,8.925 4.25,2.125 11.05,7.012 14.875,11.05 3.825,4.037 19.763,20.4 35.063,36.337 15.3,15.725 34,35.7 41.437,44.2 7.65,8.713 19.975,19.55 27.838,24.65 14.237,9.138 15.512,10.838 27.2,37.613 4.037,8.712 23.587,32.725 49.512,60.562 7.438,7.862 14.663,23.587 14.663,32.087 0,2.975 -0.425,2.975 -11.9,-1.062 z" fill="#ff0000" fill-rule="nonzero" fill-opacity="1" transform="matrix(1.00126,0,0,-1,601.628,1833.37)" id="path177" />
               <path d="m 552.075,892.287 c -3.613,-1.913 -3.825,-12.75 -3.825,-179.137 0,-168.725 0.212,-177.225 3.825,-180.413 3.612,-3.4 19.125,-3.612 179.35,-3.612 167.024,0 175.524,0.212 178.712,3.825 3.4,3.612 3.612,19.125 3.612,179.562 0,156.612 -0.425,175.737 -3.4,178.712 -2.975,2.975 -22.1,3.4 -178.924,3.4 -115.388,-0.212 -177.013,-0.85 -179.35,-2.337 z m 347.649,-9.563 c 2.975,-2.975 3.4,-21.25 3.4,-169.787 0,-148.537 -0.425,-166.812 -3.4,-169.787 -2.975,-2.975 -21.25,-3.4 -169.787,-3.4 h -166.6 l -3.187,4.675 c -2.975,4.25 -3.4,23.8 -3.4,168.512 0,144.712 0.425,164.262 3.4,168.512 l 3.187,4.675 h 166.6 c 148.537,0 166.812,-0.425 169.787,-3.4 z" fill="#ff0000" fill-rule="nonzero" fill-opacity="1" transform="matrix(1.00126,0,0,-1,601.628,1833.37)" id="path179" />
               <path d="M 806.862,854.887 C 800.7,849.149 744.6,798.362 682.55,741.837 592.875,660.025 569.5,637.712 569.5,633.675 c 0,-6.588 66.3,-79.05 72.462,-79.05 2.125,0 14.875,9.775 28.05,21.887 163.837,148.113 224.612,204.638 224.612,208.463 0,6.162 -67.787,79.899 -73.312,79.899 -1.487,0 -8.075,-4.462 -14.45,-9.987 z m 50.15,-30.6 c 18.275,-19.975 33.362,-38.037 33.362,-40.162 0,-2.125 -3.187,-6.588 -7.225,-9.988 -3.825,-3.187 -58.437,-52.7 -121.337,-110.075 -77.775,-70.762 -115.6,-104.125 -118.787,-104.125 -3.4,0 -12.538,8.5 -31.025,28.688 -14.45,15.725 -29.538,32.3 -33.788,36.55 l -7.437,8.075 4.25,5.312 c 2.125,2.975 49.937,46.963 105.825,97.75 73.1,66.513 102.425,91.8 104.337,90.313 3.188,-2.763 5.95,0 3.188,3.187 -3.188,3.825 5.312,11.05 9.137,7.65 3.613,-2.762 6.587,-0.425 3.613,2.975 -1.488,1.7 -0.85,3.612 1.912,6.162 2.762,2.55 4.463,2.975 5.525,1.276 1.912,-3.188 5.313,-0.426 3.825,3.187 -1.487,4.037 2.975,9.562 7.65,9.562 2.125,0 18.7,-16.362 36.975,-36.337 z" fill="#ff0000" fill-rule="nonzero" fill-opacity="1" transform="matrix(1.00126,0,0,-1,601.628,1833.37)" id="path181" />
               <path d="m 817.7,818.549 c -11.263,-10.2 -20.401,-19.125 -20.188,-19.974 0.638,-2.125 42.5,-48.45 43.988,-48.45 0.637,0.212 10.412,8.925 21.674,19.762 l 20.825,19.55 -22.95,23.8 -22.737,24.013 z" fill="#ff0000" fill-rule="nonzero" fill-opacity="1" transform="matrix(1.00126,0,0,-1,601.628,1833.37)" id="path183" />
               <path d="m 763.087,793.262 c -15.3,-14.025 -15.3,-14.025 -11.05,-18.275 4.038,-4.25 4.25,-4.25 19.125,9.35 8.288,7.438 15.088,14.663 15.088,15.938 0,2.337 -4.25,7.225 -6.588,7.225 -0.85,0 -8.287,-6.375 -16.575,-14.238 z" fill="#ff0000" fill-rule="nonzero" fill-opacity="1" transform="matrix(1.00126,0,0,-1,601.628,1833.37)" id="path185" />
               <path d="m 774.987,780.725 -14.45,-13.6 8.075,-9.563 c 4.25,-5.312 8.288,-9.562 8.713,-9.562 0.425,0 8.075,6.375 16.575,14.237 l 15.937,14.025 -9.137,9.35 c -4.888,4.888 -9.563,9.138 -10.2,9.138 -0.638,-0.213 -7.65,-6.375 -15.513,-14.025 z" fill="#ff0000" fill-rule="nonzero" fill-opacity="1" transform="matrix(1.00126,0,0,-1,601.628,1833.37)" id="path187" />
               <path d="m 722.5,756.712 -20.188,-18.912 4.463,-4.675 4.462,-4.675 20.613,18.7 c 11.262,10.2 20.4,19.125 20.4,19.975 0,1.487 -7.225,8.5 -8.713,8.5 -0.425,0 -9.987,-8.713 -21.037,-18.913 z" fill="#ff0000" fill-rule="nonzero" fill-opacity="1" transform="matrix(1.00126,0,0,-1,601.628,1833.37)" id="path189" />
               <path d="m 675.75,690.2 c -43.775,-39.95 -79.688,-73.738 -79.688,-75.225 0,-2.763 41.225,-48.663 43.775,-48.663 1.913,0 161.288,145.563 161.288,147.263 -0.213,0.85 -10.413,12.325 -22.95,25.5 l -22.738,23.8 z" fill="#ff0000" fill-rule="nonzero" fill-opacity="1" transform="matrix(1.00126,0,0,-1,601.628,1833.37)" id="path191" />
               <path d="m 802.4,750.55 c -3.188,-3.825 -3.188,-4.25 0.85,-7.863 5.312,-4.887 5.312,-7.012 -0.213,-13.175 -3.825,-3.825 -4.25,-5.312 -1.912,-8.075 1.487,-1.7 3.825,-3.187 5.099,-3.187 1.276,0.212 8.926,6.375 17.213,13.812 14.662,13.388 14.662,13.6 10.625,18.063 l -3.825,4.25 -4.675,-4.25 c -5.737,-5.313 -7.862,-5.313 -11.263,0 -3.187,5.312 -7.224,5.312 -11.899,0.425 z" fill="#ff0000" fill-rule="nonzero" fill-opacity="1" transform="matrix(1.00126,0,0,-1,601.628,1833.37)" id="path193" />
               <path d="m 673.837,712.3 c -18.487,-17.213 -19.762,-18.913 -17.425,-23.375 1.275,-2.55 2.975,-4.675 3.825,-4.675 0.638,0 10.625,8.712 22.1,19.337 20.188,18.7 21.038,19.763 17.638,23.375 -2.125,2.338 -4.25,4.038 -4.888,4.038 -0.637,0 -10.2,-8.5 -21.25,-18.7 z" fill="#ff0000" fill-rule="nonzero" fill-opacity="1" transform="matrix(1.00126,0,0,-1,601.628,1833.37)" id="path195" />
               <path d="m 626.662,668.1 c -11.05,-9.988 -20.187,-18.913 -20.612,-19.763 -0.213,-0.85 1.275,-3.187 3.187,-5.1 3.613,-3.187 5.1,-2.125 24.863,16.15 20.4,19.125 20.825,19.55 16.787,23.163 -4.037,3.612 -4.887,3.187 -24.225,-14.45 z" fill="#ff0000" fill-rule="nonzero" fill-opacity="1" transform="matrix(1.00126,0,0,-1,601.628,1833.37)" id="path197" />
               <path d="m 586.925,632.612 -4.675,-5.1 4.25,-3.825 c 4.25,-3.825 4.462,-3.825 9.137,0.638 l 4.463,4.675 -4.25,4.25 -4.25,4.25 z" fill="#ff0000" fill-rule="nonzero" fill-opacity="1" transform="matrix(1.00126,0,0,-1,601.628,1833.37)" id="path199" />
               <path d="m 140.25,489.387 c -1.7,-0.637 -4.888,-2.55 -6.8,-4.462 -3.613,-2.975 -3.825,-14.238 -3.825,-177.65 0,-154.488 0.425,-175.1 3.4,-179.35 l 3.187,-4.675 h 176.375 c 173.4,0 176.163,0 180.413,4.25 4.25,4.25 4.25,7.012 4.25,179.137 v 175.1 l -4.463,4.038 c -4.25,3.825 -10.625,4.037 -177.012,4.462 C 221,490.45 141.95,490.025 140.25,489.387 Z M 482.375,476 c 4.25,-4.25 4.25,-7.013 4.25,-168.513 0,-145.137 -0.425,-164.687 -3.4,-168.937 l -3.188,-4.675 h -166.6 c -148.537,0 -166.812,0.425 -169.787,3.4 -2.975,2.975 -3.4,21.25 -3.4,169.787 0,148.538 0.425,166.813 3.4,169.788 2.975,2.975 21.25,3.4 168.937,3.4 162.775,0 165.538,0 169.788,-4.25 z" fill="#ff0000" fill-rule="nonzero" fill-opacity="1" transform="matrix(1.00126,0,0,-1,601.628,1833.37)" id="path201" />
               <path d="m 236.937,451.35 c -13.387,-2.763 -30.812,-8.288 -40.375,-12.538 -5.737,-2.55 -13.812,-5.95 -17.637,-7.437 -3.825,-1.488 -7.438,-3.4 -8.075,-4.463 -1.063,-1.7 14.662,-32.725 22.525,-44.412 8.075,-12.113 19.337,-36.763 18.7,-41.013 -0.425,-3.187 -4.038,-6.162 -10.838,-9.562 -8.075,-3.825 -9.987,-5.525 -8.925,-8.5 0.85,-1.913 1.913,-6.588 2.55,-10.413 1.063,-6.375 0.638,-6.8 -12.962,-13.387 -7.863,-3.825 -15.513,-8.925 -17.213,-11.263 -3.612,-5.1 -4.25,-22.95 -1.275,-32.512 1.063,-3.4 3.4,-11.475 5.313,-18.063 4.887,-16.362 19.55,-38.25 41.65,-62.05 12.325,-13.387 20.187,-18.487 27.837,-18.487 5.1,0 24.225,10.2 44.413,23.587 12.537,8.288 17.85,9.988 20.187,6.375 2.125,-3.825 29.325,-21.675 32.725,-21.887 12.538,-0.425 70.338,39.312 102.425,70.337 24.013,23.375 25.925,28.05 13.175,33.363 -12.962,5.525 -14.025,6.162 -16.362,10.2 -1.913,2.975 -1.063,4.887 4.675,9.987 7.65,6.8 11.9,15.725 9.562,19.55 -0.85,1.275 -1.487,11.688 -1.7,23.163 0,23.375 -0.637,24.437 -22.312,40.8 -20.825,15.512 -22.313,15.937 -41.65,10.837 -11.9,-2.975 -15.3,-4.675 -13.388,-5.95 0.425,-0.425 6.588,-4.887 13.6,-9.987 14.875,-10.838 16.575,-12.963 13.175,-16.363 -3.825,-3.825 -136.212,-70.762 -139.825,-70.762 -3.825,0 -32.087,24.65 -34.85,30.175 -1.487,3.187 -1.062,4.887 1.488,6.8 1.7,1.275 34.85,15.087 73.525,30.812 38.675,15.725 70.125,29.113 69.487,29.538 -0.425,0.425 -4.462,-0.425 -8.712,-1.7 -7.225,-2.55 -8.288,-2.338 -11.475,1.7 -1.913,2.337 -7.013,5.737 -11.05,7.437 -7.863,3.4 -11.475,7.225 -22.95,25.925 -4.038,6.588 -10.2,13.388 -13.388,15.088 -3.187,1.7 -9.137,7.862 -13.175,13.387 -4.25,5.738 -9.562,10.838 -12.325,11.688 -5.1,1.275 -29.75,1.275 -36.55,0 z" fill="#ff0000" fill-rule="nonzero" fill-opacity="1" transform="matrix(1.00126,0,0,-1,601.628,1833.37)" id="path203" />
               <path d="m 555.262,487.687 -7.012,-2.975 V 307.487 c 0,-168.937 0.212,-177.437 3.825,-180.625 3.612,-3.4 19.125,-3.612 179.35,-3.612 167.024,0 175.524,0.212 178.712,3.825 3.4,3.612 3.612,19.125 3.612,179.137 0,96.263 -0.85,176.163 -1.7,177.65 -4.25,6.588 -14.662,7.013 -181.687,7.013 -140.25,-0.213 -169.362,-0.638 -175.1,-3.188 z m 344.037,-11.05 c 3.613,-3.187 3.825,-11.262 3.825,-169.787 0,-148.325 -0.425,-166.6 -3.4,-169.575 -2.975,-2.975 -21.25,-3.4 -169.787,-3.4 h -166.6 l -3.187,4.675 c -2.975,4.25 -3.4,23.8 -3.4,168.512 0,144.713 0.425,164.263 3.4,168.513 l 3.187,4.675 H 729.3 c 151.512,0 166.387,-0.213 169.999,-3.613 z" fill="#ff0000" fill-rule="nonzero" fill-opacity="1" transform="matrix(1.00126,0,0,-1,601.628,1833.37)" id="path205" />
               <path d="m 821.312,455.6 c -5.737,-2.975 -14.45,-9.563 -19.125,-14.875 -8.075,-9.138 -8.925,-9.563 -14.662,-7.225 -3.4,1.275 -6.375,1.912 -6.8,1.7 -0.213,-0.425 -2.338,-9.775 -4.675,-21.038 -6.8,-33.15 -8.925,-36.125 -70.125,-96.05 C 573.75,188.487 575.875,190.825 575.875,183.387 c 0,-3.825 1.062,-9.137 2.337,-12.112 3.188,-6.8 14.663,-12.963 21.463,-11.263 3.187,0.85 17,13.813 33.787,31.663 15.513,16.787 36.55,39.1 46.538,49.512 9.987,10.625 23.8,25.288 30.812,32.938 52.488,57.375 72.675,77.775 83.725,84.787 8.5,5.525 17,8.713 51.213,19.55 4.037,1.275 11.474,4.675 16.362,7.438 7.225,4.25 9.35,7.012 12.325,15.937 5.95,17.638 1.062,46.538 -7.65,46.538 -2.125,0 -5.95,-5.738 -10.412,-15.725 -8.713,-19.975 -15.301,-23.375 -29.326,-14.875 -0.424,0.212 2.763,8.712 7.013,18.912 10.625,25.713 8.075,29.538 -12.75,18.913 z M 606.475,191.462 c 5.1,-5.737 3.612,-14.875 -3.613,-20.187 -5.525,-4.038 -6.162,-4.038 -11.687,-0.85 -8.288,5.1 -8.925,14.662 -1.275,20.612 7.012,5.525 11.9,5.738 16.575,0.425 z" fill="#ff0000" fill-rule="nonzero" fill-opacity="1" transform="matrix(1.00126,0,0,-1,601.628,1833.37)" id="path207" />
            </g>
         </g>
      </g>
   </g>
</svg>
